<?xml version="1.0" encoding="utf-8"?>
<!-- Generator: Adobe Illustrator 25.2.3, SVG Export Plug-In . SVG Version: 6.00 Build 0)  -->
<svg version="1.1" id="Layer_1" xmlns="http://www.w3.org/2000/svg" xmlns:xlink="http://www.w3.org/1999/xlink" x="0px" y="0px"
	 viewBox="0 0 400 400" style="enable-background:new 0 0 400 400;" xml:space="preserve">
<style type="text/css">
	.st0{fill:#FCC02A;}
	.st1{fill:#C10230;}
	.st2{fill:#FFFFFF;}
</style>
<rect class="st0" width="400" height="400"/>
<g>
	<g>
		<path class="st1" d="M138.7,92.2c0.4-4.7,3.3-6.5,7.8-6.5c4.2,0,7.6,0.7,7.6,5.8c0,4.8-6.7,4.6-14,5.6c-7.3,1-14.6,3.3-14.6,13
			c0,8.8,6.5,12.9,14.6,12.9c5.2,0,10.7-1.4,14.5-5.3c0.1,1.4,0.4,2.8,0.8,4.2h12c-1.1-1.7-1.5-5.6-1.5-9.6V90
			c0-10.3-10.3-12.2-18.9-12.2c-9.6,0-19.5,3.3-20.2,14.4H138.7z M154.1,105.3c0,2.6-0.3,9.9-9.6,9.9c-3.8,0-7.2-1.1-7.2-5.5
			c0-4.3,3.3-5.6,7-6.3c3.7-0.7,7.8-0.7,9.8-2.5V105.3z M98.4,121.9h11.8v-19.4c0-7.6,3-13.8,11.6-13.8c1.4,0,3.2,0.2,4.2,0.4v-11
			c-0.7-0.2-1.7-0.4-2.6-0.4c-5.7,0-11.5,3.7-13.7,9.1h-0.2v-8H98.4V121.9z M84.1,100.5c0,7.1-3.1,13.7-10.1,13.7
			c-7,0-10.1-6.6-10.1-13.7C64,93.3,67,86.7,74,86.7C81,86.7,84.1,93.3,84.1,100.5 M52.6,121.9h11.2v-5.5H64
			c2.6,4.7,7.8,6.6,14.1,6.6c8.6,0,17.8-6.9,17.8-22.7c0-15.7-9.2-22.6-17.8-22.6c-5.3,0-10.6,2-13.5,6.4h-0.2V62.6H52.6V121.9z
			 M19.6,95.8c0.2-3.3,2.3-9.1,9.8-9.1c5.7,0,8.3,3.2,9.4,9.1H19.6z M50.6,103.3c0.8-13.2-6.2-25.5-20.9-25.5
			c-13,0-21.9,9.8-21.9,22.7c0,13.3,8.4,22.6,21.9,22.6c9.7,0,16.8-4.3,20.1-14.5H39.5c-0.7,2.7-4.6,5.6-9.3,5.6
			c-6.6,0-10.2-3.4-10.6-10.9H50.6z"/>
		<g>
			<path class="st1" d="M400,271h-12.2l-9.4,29.4h-0.2l-9.7-29.4h-12.6l15.1,40.3c1.3,3.4,0,7.6-4.1,8.1c-2.3,0.1-4.7-0.2-6.9-0.4
				v9.7c2.4,0.2,4.8,0.4,7.2,0.4c8.1,0,12.2-2.8,14.8-9.7L400,271z M333.5,314h11.8v-19.4c0-7.6,3-13.8,11.6-13.8
				c1.4,0,3.2,0.2,4.2,0.4v-11c-0.7-0.2-1.7-0.4-2.6-0.4c-5.7,0-11.5,3.7-13.7,9.1h-0.2v-8h-11.2V314z M322.6,258.2h-11.8V271h-7.1
				v7.9h7.1v25.3c0,8.6,6.3,10.2,13.5,10.2c2.3,0,4.9-0.1,6.9-0.4v-9.2c-1.2,0.2-2.4,0.3-3.7,0.3c-4,0-5-1-5-5v-21.3h8.6V271h-8.6
				V258.2z M274.6,287.9c0.2-3.3,2.3-9.1,9.8-9.1c5.7,0,8.3,3.2,9.4,9.1H274.6z M305.6,295.4c0.8-13.2-6.2-25.5-20.9-25.5
				c-13,0-21.9,9.8-21.9,22.7c0,13.3,8.4,22.6,21.9,22.6c9.7,0,16.8-4.3,20.1-14.5h-10.4c-0.7,2.7-4.6,5.6-9.3,5.6
				c-6.6,0-10.2-3.4-10.6-10.9H305.6z"/>
			<path class="st1" d="M370.1,235.6h25v-10.1h-25V235.6z M301.5,253.2h11.8v-24.9c0-8.4,5.6-9.9,8-9.9c7.5,0,7.1,5.7,7.1,10.7v24.1
				h11.8v-23.9c0-5.4,1.2-10.9,7.9-10.9c6.7,0,7.2,4.7,7.2,10.5v24.3h11.8v-28.7c0-11.1-6.6-15.4-15.7-15.4c-6,0-10.5,3.4-13,7.1
				c-2.3-5.2-7.1-7.1-12.5-7.1c-5.6,0-10.1,2.6-13.1,7h-0.2v-5.8h-11.1V253.2z M267.1,231.7c0-6.9,2.4-13.8,10.4-13.8
				c8.1,0,10.5,6.9,10.5,13.8c0,6.8-2.4,13.7-10.5,13.7C269.5,245.4,267.1,238.5,267.1,231.7 M255.3,231.7
				c0,13.6,8.7,22.6,22.2,22.6c13.5,0,22.3-9,22.3-22.6c0-13.7-8.7-22.7-22.3-22.7C264,209.1,255.3,218,255.3,231.7 M211.9,253.2
				h11.8v-22.5c0-8.7,2.7-12.3,9.1-12.3c5.5,0,7.6,3.5,7.6,10.6v24.3h11.8v-26.4c0-10.6-3.2-17.7-15.7-17.7c-5,0-10.1,2.3-13.1,7.1
				h-0.2v-6h-11.2V253.2z M176.2,231.7c0-6.9,2.4-13.8,10.4-13.8c8.1,0,10.5,6.9,10.5,13.8c0,6.8-2.4,13.7-10.5,13.7
				C178.6,245.4,176.2,238.5,176.2,231.7 M164.4,231.7c0,13.6,8.7,22.6,22.2,22.6c13.5,0,22.3-9,22.3-22.6
				c0-13.7-8.7-22.7-22.3-22.7C173.2,209.1,164.4,218,164.4,231.7"/>
			<path class="st1" d="M370.1,174.7h25v-10.1h-25V174.7z M344.4,182.2c-7.2,0-9.6-6.7-9.6-12.9c0-6.4,2.9-12.2,9.6-12.2
				c7.6,0,10.1,6.2,10.1,13.2C354.5,176.5,351.1,182.2,344.4,182.2 M365.7,149.4h-11.2v5.7h-0.2c-2.8-5-7.1-6.9-12.8-6.9
				c-12,0-18.4,10.1-18.4,21.3c0,11.8,5.5,21.6,18.4,21.6c5.2,0,10.3-2.2,12.9-6.6h0.2v5.6c0.1,6.1-2.9,10.6-9.5,10.6
				c-4.2,0-7.7-1.5-8.8-5.9h-11.7c0.6,9.8,10.5,13.8,18.9,13.8c19.8,0,22.3-12,22.3-19V149.4z M320.1,133h-11.8v9.7h11.8V133z
				 M308.3,192.3h11.8v-43h-11.8V192.3z M277.3,192.3h11.8V173c0-7.6,3-13.8,11.6-13.8c1.4,0,3.2,0.2,4.2,0.4v-11
				c-0.7-0.2-1.7-0.4-2.6-0.4c-5.7,0-11.5,3.7-13.7,9.1h-0.2v-8h-11.2V192.3z M253.5,192.3h13V144h17.8v-11h-48.6v11h17.8V192.3z"/>
			<path class="st2" d="M200.5,139.9c0-1.4,0.6-2.8,2.2-2.8c1.7,0,2.3,1.3,2.3,2.8c0,1.4-0.6,2.8-2.2,2.8
				C201.2,142.6,200.5,141.2,200.5,139.9 M206.1,133.4h-1.2v3.8h0c-0.5-0.9-1.6-1.1-2.4-1.1c-2.2,0-3.3,1.7-3.3,3.8
				c0,2.1,1.1,3.8,3.4,3.8c1,0,1.9-0.4,2.3-1.2h0v1h1.2V133.4z M191.7,143.5h1.2v-4.1c0-1.3,0.7-2.3,2.2-2.3c0.9,0,1.5,0.6,1.5,1.5
				v4.9h1.2v-4.8c0-1.6-0.6-2.7-2.5-2.7c-1,0-1.9,0.4-2.4,1.3h0v-1.2h-1.1V143.5z M190.6,142.5c-0.2,0.1-0.3,0.1-0.4,0.1
				c-0.4,0-0.4-0.3-0.4-0.8V138c0-1.7-1.4-2-2.7-2c-1.6,0-3,0.6-3.1,2.4h1.2c0.1-1.1,0.8-1.4,1.8-1.4c0.8,0,1.6,0.2,1.6,1.2
				c0,0.9-1.1,0.8-2.5,1.1c-1.2,0.2-2.5,0.6-2.5,2.2c0,1.5,1.1,2,2.4,2c1,0,1.9-0.4,2.6-1.1c0,0.8,0.4,1.1,1,1.1
				c0.4,0,0.6-0.1,0.9-0.2V142.5z M188.7,140.9c0,0.7-0.6,1.7-2.2,1.7c-0.7,0-1.4-0.3-1.4-1.1c0-0.9,0.7-1.2,1.5-1.3
				c0.8-0.1,1.7-0.2,2.2-0.5V140.9z"/>
		</g>
	</g>
	<g>
		<rect x="114.6" y="30.9" class="st1" width="25" height="10.1"/>
		<path class="st1" d="M98.9,21.4h-0.2c-2.8-5-7.1-6.9-12.8-6.9c-12,0-18.4,10.1-18.4,21.3c0,11.8,5.5,21.6,18.4,21.6
			c5.2,0,10.3-2.2,12.9-6.6h0.2v5.6C99,62.5,96,67,89.5,67c-4.2,0-7.7-1.5-8.8-5.9H69c0.6,9.8,10.5,13.8,18.9,13.8
			c19.8,0,22.3-12,22.3-19V15.7H98.9V21.4z M88.9,48.5c-7.2,0-9.6-6.7-9.6-12.9c0-6.4,2.9-12.2,9.6-12.2c7.6,0,10.1,6.2,10.1,13.2
			C98.9,42.8,95.6,48.5,88.9,48.5z"/>
		<path class="st1" d="M52.8,0v56.6L31.6,0H17.7L0,46.6v12h8.6l4.7-13.2h22.2L40,58.6h12.8h0.7h11V0H52.8z M16.7,35.7l7.7-21.8h0.2
			l7.5,21.8H16.7z"/>
	</g>
	<path class="st1" d="M397,387.3h-4.3v8.7h4.3V387.3z M353.6,371.8c0.7-8.6,6.4-17.6,16-17.6c10,0,15.8,8.5,15.9,17.6H353.6z
		 M388.8,374.6c0.6-12.5-5.5-23.2-19.1-23.2c-13.1,0-19.4,11.6-19.2,23.5c-0.2,12,6.5,22,19.2,22c10.3,0,17.1-5.6,18.8-15.8h-3.2
		c-1.5,8-7.4,13-15.6,13c-10.8,0-16.2-9.3-16-19.6H388.8z M313.6,392.8c0.6-7.2,9.1-12.4,17.5-18c8.4-5.6,16.4-12,16.4-22.3
		c0-10.8-8.2-16-18.1-16c-11.4,0-17.8,6.8-18.5,20.8h3.2c0-10.1,5.1-18,15.8-18c7.6,0,14.4,5.2,14.4,13.1c0,9.8-8.5,15.2-16.9,20.9
		c-8.6,5.7-17.2,11.7-17.9,22.6h39v-3.2H313.6z"/>
</g>
</svg>
